<svg width="120" height="64" viewBox="0 0 120 64" fill="none" xmlns="http://www.w3.org/2000/svg">
<path d="M0 0H120V56.2627L0 62V0Z" fill="#D40035"/>
<path d="M61.3788 22.0057L62.6165 25.1981H71.4765L72.7141 22.0057H61.3788Z" fill="#ECFD00"/>
<path d="M43.9943 22.0057H51.2754C54.8322 22.0057 57.0472 23.9177 57.0472 26.8632C57.0472 28.6547 56.1218 30.0557 54.6124 30.6356C56.5614 31.2385 57.7296 32.7888 57.7296 34.718C57.7296 38.031 55.37 40.1325 51.3738 40.1325H43.9943V22.0057ZM50.6451 29.3092C52.1776 29.3092 53.103 28.5341 53.103 27.2767C53.103 26.0192 52.2239 25.1981 50.7434 25.1981H47.8691V29.3092H50.6451ZM50.9574 36.9458C52.7849 36.9458 53.7565 35.8836 53.7565 34.5745C53.7565 33.2653 52.8543 32.3524 50.9805 32.3524H47.8633V36.9458H50.9574Z" fill="white"/>
<path d="M60.5576 33.696C60.5576 29.7514 63.1543 26.9953 67.0407 26.9953C70.9271 26.9953 73.5238 29.7456 73.5238 33.696C73.5238 37.6463 70.9271 40.5 67.0407 40.5C63.1543 40.5 60.5576 37.698 60.5576 33.696ZM69.6605 33.7132C69.6605 31.8758 68.6485 30.6127 67.0465 30.6127C65.4445 30.6127 64.4324 31.8701 64.4324 33.7132C64.4324 35.5563 65.4445 36.8884 67.0465 36.8884C68.6485 36.8884 69.6605 35.6023 69.6605 33.7132Z" fill="white"/>
<path d="M77.3582 22.0057H81.1578L88.7802 33.6041V22.0746H92.5798V40.2014H88.7802L81.1578 28.7925V40.1268H77.3582V22V22.0057Z" fill="white"/>
<path d="M94.6676 40.2071H94.014L100.902 22.0057H105.031L111.237 38.2664L112 40.2071H107.715L106.298 36.3487H99.3058L97.912 40.2071H94.6618H94.6676ZM102.828 26.3522L100.434 33.0471H105.222L102.828 26.3522Z" fill="white"/>
<path d="M25.2911 40.1382H24.6376L31.4966 22.0114H35.6143L41.7966 38.209L42.56 40.144H38.2919L36.8808 36.3027H29.9177L28.5297 40.144H25.2911V40.1382ZM33.4224 26.335L31.0339 33.0069H35.8051L33.4224 26.335Z" fill="white"/>
<path d="M23.9204 40.1383L14.1293 25.4508H10L19.635 40.1383H22.7522H23.9204Z" fill="white"/>
<path opacity="0.2" d="M14.1293 25.4566H10L11.1914 27.2767H15.3438L14.1293 25.4566Z" fill="black"/>
<path opacity="0.2" d="M19.7738 33.92C18.9641 34.2358 18.0156 34.3965 16.9053 34.3965H15.8643L17.0556 36.2109C18.4783 36.1937 19.7333 35.9411 20.8032 35.4645L19.7738 33.92Z" fill="black"/>
<path fill-rule="evenodd" clip-rule="evenodd" d="M21.555 23.6531C20.3001 22.5507 18.5304 22.0052 16.246 22.0052H10V25.4561H16.911C18.6171 25.4561 19.9473 26.8571 19.8374 28.3958C19.7333 29.8026 18.4436 30.928 16.8879 30.928H10.0058V40.1435H13.6897V34.4017H16.9168C18.461 34.4017 19.7102 34.0974 20.676 33.4888C22.6712 32.2314 23.4462 30.1873 23.4462 28.1202C23.4462 27.4714 23.423 26.1164 22.5498 24.7785C22.2085 24.2618 21.8384 23.8943 21.5666 23.6589L21.555 23.6531Z" fill="white"/>
</svg>
