<svg fill="none" height="512" viewBox="0 0 512 512" width="512" xmlns="http://www.w3.org/2000/svg" xmlns:xlink="http://www.w3.org/1999/xlink"><clipPath id="a"><rect height="512" rx="114.667" width="512"/></clipPath><g clip-path="url(#a)"><rect fill="#d40035" height="512" rx="114.667" width="512"/><path d="m137 70 19.501 50.529h139.291l19.405-50.529z" fill="#fff200"/><path d="m380.04 435.904-153.989-232.568h-64.939l151.587 232.664h48.896z" fill="#fff"/><path d="m161.112 203.239v.096l.096.096h64.939l-.096-.096z" fill="#fff"/><path d="m226.051 203.432h-64.939l18.732 28.818h65.227l-19.116-28.818z" fill="#430313" opacity=".6"/><path d="m314.812 337.536c-12.68 4.995-27.666 7.589-45.053 7.589h-16.331l18.732 28.722c22.383-.288 42.172-4.226 58.887-11.815z" fill="#430313" opacity=".6"/><path clip-rule="evenodd" d="m342.863 174.901c-19.693-17.483-47.551-26.129-83.479-26.129h-98.272v54.66h108.647c26.802 0 47.744 22.19 46.014 46.494-1.633 22.287-21.902 40.059-46.398 40.059h-108.263v145.919h57.926v-90.875h50.721c24.208 0 43.901-4.804 59.079-14.41 31.413-19.885 43.517-52.354 43.517-85.016 0-10.278-.385-31.796-14.122-52.93-5.283-8.166-11.143-13.929-15.466-17.772z" fill="#fff" fill-rule="evenodd"/></g></svg>